<svg width="979" height="547" viewBox="0 0 979 547" fill="none" xmlns="http://www.w3.org/2000/svg">
<path fill-rule="evenodd" clip-rule="evenodd" d="M736.888 2.09076C715.52 6.53691 711.007 8.75595 702.647 18.9248C699.305 22.9905 695.585 26.4871 694.325 26.7454C679.014 29.8838 679.336 29.5316 680.692 41.6773C682.066 53.9844 681.582 54.7211 675.48 49.619C669.52 44.637 668.718 44.5583 666.932 48.7713C664.793 53.8189 661.882 56.0077 659.208 54.5778C655.146 52.4072 649.387 54.3073 644.092 59.5668C638.541 65.0796 630.784 69.7054 622.815 72.2534C619.757 73.2312 616.102 74.8377 614.691 75.8236C605.397 82.3183 582.626 88.925 578.604 86.2932C576.812 85.1206 574.815 84.7836 571.942 85.168C566.24 85.9319 562.59 84.1297 554.119 76.3676C550.122 72.7065 546.441 69.7104 545.939 69.7104C545.437 69.7104 542.72 66.782 539.903 63.2027C534 55.7019 532.208 54.827 527.607 57.1974C521.83 60.1733 471.914 111.621 467.005 119.659C462.947 126.303 465.142 130.599 476.484 138.21C480.25 140.737 481.496 142.305 482.417 145.672C485.017 155.188 485.565 156.396 488.008 157.995C494.544 162.27 497.674 160.504 502.63 149.743C506.999 140.257 509.773 138.946 513.859 144.436C515.755 146.983 515.746 147.1 513.09 155.496C508.209 170.924 504.237 172.802 487.544 167.58C484.02 166.478 480.687 165.576 480.139 165.576C479.59 165.576 474.228 170.304 468.224 176.082C456.023 187.825 453.61 189.379 446.014 190.385C439.647 191.229 438.865 192.64 442.286 197.117C445.72 201.613 449.273 209.765 448.581 211.565C448.181 212.604 446.232 213.005 441.578 213.005C434.693 213.005 429.203 214.409 428.482 216.355C424.102 228.175 426.395 240.799 433.382 243.33C439.072 245.392 454.822 235.547 458.999 227.319C464.989 215.519 469.612 214.113 482.333 220.219C493.923 225.782 495.529 227.793 493.354 234.024C491.543 239.209 492.628 239.435 499.004 235.201C506.433 230.269 505.561 230.227 511.049 235.784C516.093 240.894 519.344 241.424 521.316 237.457C523.076 233.919 523.432 233.828 526.997 235.988C528.834 237.1 534.142 238.819 538.795 239.808C550.688 242.333 553.851 246.592 549.137 253.731C544.926 260.108 537.218 262.211 530.593 258.791C527.988 257.446 525.936 257.294 519.272 257.946C503.651 259.479 501.134 258.674 495.463 250.337C489.164 241.075 481.723 238.935 463.702 241.199C438.498 244.367 433.2 247.228 420.553 264.5C404.368 286.603 402.465 296.955 410.528 319.015C417.546 338.215 426.324 344.52 442.931 342.289C453.356 340.888 467.491 340.842 472.364 342.194C477.939 343.74 478.729 345.208 477.195 351.181C475.938 356.077 476.002 356.423 479.557 364.076C484.808 375.376 496.864 428.271 499.398 451.126C500.772 463.516 502.219 464.493 514.976 461.635C532.268 457.762 536.903 453.346 542.584 435.337C546.701 422.286 548.773 418.769 555.109 414.073C557.604 412.225 561.01 409.66 562.678 408.374L565.71 406.036L566.216 387.293C566.668 370.505 566.932 368.286 568.742 366.03C569.854 364.644 574.979 358.368 580.132 352.084C589.921 340.144 596.07 329.405 597.13 322.397L597.755 318.266L589.281 317.615C571.433 316.246 568.819 314.531 559.407 298.021C552.576 286.037 551.461 282.442 554.388 281.834C557.221 281.247 559.046 283.407 563.552 292.692C569.904 305.776 576.636 312.324 583.08 311.683C593.034 310.692 612.118 300.97 613.295 296.291C615.277 288.406 610.025 280.847 601.644 279.524C595.555 278.564 591.483 275.493 591.483 271.862C591.483 268.074 592.879 268.477 609.36 277.014C611.133 277.931 615.202 279.109 618.405 279.628C637.733 282.77 648.751 293.748 659.713 320.787C667.073 338.939 668.631 339.604 674.941 327.278C680.211 316.983 687.131 306.45 692.854 300.017C695.419 297.134 698.008 293.859 698.609 292.741C700.396 289.406 701.829 290.246 712.025 300.609C723.249 312.015 723.884 313.271 723.884 324.073C723.884 333.55 724.663 333.936 728.85 326.53C732.595 319.903 733.187 319.781 736.134 325.016C738.898 329.927 740.332 330.03 747.903 325.86C759.13 319.676 759.976 317.822 755.731 308.718C750.857 298.265 753.142 294.082 765.222 291.346C788.931 285.976 793.962 277.714 786.864 255.81C783.425 245.202 786.177 237.091 794.866 232.222C798.634 230.11 799.079 231.074 798.811 240.772C798.541 250.545 798.301 250.349 807.576 247.884C815.623 245.744 815.858 245.38 815.858 234.986V225.931L827.357 213.577C841.147 198.764 843.249 195.699 846.687 185.398C849.838 175.955 849.264 172.928 843.375 167.933L839.609 164.739L841.556 161.086C845.458 153.765 858.639 144.423 865.109 144.395C869.924 144.374 875.118 147.413 877.501 151.648C879.66 155.483 879.844 157.048 879.964 172.542C880.129 193.978 880.56 194.593 886.653 182.084C890.112 174.979 893.526 169.879 898.596 164.243C904.724 157.431 905.858 155.566 906.877 150.62C907.526 147.468 908.426 144.19 908.877 143.335C909.795 141.595 909.255 141.886 928.277 132.847C947.18 123.864 950.28 120.99 950.28 112.448C950.28 103.762 950.599 103.688 964.284 109.211C967.666 110.575 967.69 110.564 972.175 105.626C978.763 98.3703 980.123 95.3954 978.197 92.4599C973.905 85.9218 951.867 69.3371 938.277 62.4196C930.173 58.2943 929.467 58.1208 921.763 58.3609C911.799 58.6728 903.268 56.7655 890.753 51.4263C878.382 46.1497 861.936 41.8448 846.684 39.8932C833.261 38.1746 813.621 33.7567 801.202 29.6628C793.504 27.1248 792.572 26.4709 781.73 16.0085C764.645 -0.480462 758.466 -2.39879 736.888 2.09076ZM312.155 24.5526C312.157 25.2469 313.063 30.355 314.168 35.9051C315.273 41.4553 316.484 50.9702 316.858 57.0491C317.5 67.4813 317.694 68.2331 320.318 70.437C323.948 73.4876 324.829 78.7541 322.813 85.3517C319.123 97.4227 321.031 107.496 330.858 127.823C337.024 140.576 341.474 146.403 345.051 146.403C345.829 146.403 347.17 147.765 348.032 149.43C351.255 155.653 353.771 152.044 359.664 132.751C365.224 114.547 365.188 114.597 379.869 104.771C396.01 93.9685 403.999 87.7201 411.067 80.3687L417.502 73.6742L416.865 67.4036C416.516 63.9545 415.97 57.5002 415.654 53.0601L415.078 44.9872L420.215 34.5802C423.039 28.8565 425.35 23.9744 425.35 23.7322C425.35 23.49 399.881 23.2912 368.751 23.2912C324.144 23.2912 312.153 23.5586 312.155 24.5526ZM14.3807 57.8685C13.2023 58.5537 8.88153 61.913 4.77912 65.3329C0.676702 68.7538 -3.8027 72.4482 -5.17422 73.5431C-7.60292 75.4826 -7.63425 75.6723 -6.33248 80.7411L-4.99634 85.9461L-9.21599 92.2086C-12.5695 97.1846 -13.3235 99.0918 -12.8879 101.498C-12.5867 103.163 -11.6528 109.662 -10.8129 115.942C-8.36802 134.226 -6.11922 137.749 5.40575 141.344C18.1335 145.315 27.5602 145.227 34.3642 141.074C49.7218 131.7 56.924 133.164 63.5066 146.998C68.2761 157.022 72.7909 162.292 80.739 167.112C88.1171 171.587 95.3931 179.476 99.8604 187.843C103.135 193.979 103.35 195.017 104.027 207.948C105.133 229.05 108.624 240.336 117.74 252.283C120.822 256.322 126.323 264.235 129.966 269.869C145.664 294.148 144.954 293.448 145.991 285.639C146.939 278.504 147.786 278.598 152.788 286.389C160.297 298.087 165.865 302.254 177.5 304.88C188.863 307.446 191.253 308.524 198.335 314.284C201.191 316.606 206.961 320.247 211.157 322.374C231.601 332.737 233.68 336.825 227.605 354.709C223.89 365.649 224.283 368.483 231.491 382.756C236.522 392.718 238.982 396.35 244.024 401.267C256.051 412.994 256.2 413.844 251.497 444.147C249.821 454.939 248.202 468.083 247.899 473.356C247.595 478.628 246.406 490.139 245.257 498.935C242.862 517.265 243.131 526.394 246.246 532.485C250.276 540.365 260.278 546.957 268.271 546.999C273.752 547.028 274.075 546.466 271.132 542.025C267.188 536.075 266.905 529.625 270.225 521.338C272.877 514.72 272.947 514.108 271.789 507.637C270.078 498.075 271.144 496.133 285.359 482.911C292.067 476.673 305.062 462.595 315.141 450.651C324.975 438.996 335.294 427.416 338.072 424.918C347.248 416.67 350.13 411.876 355.004 396.765C365.01 365.74 364.393 364.305 338.43 358.188C322.703 354.481 323.013 354.671 306.964 338.97C295.468 327.723 294.976 327.376 284.729 323.32C263.262 314.822 248.863 312.86 241.078 317.373C231.514 322.916 226.425 321.763 221.628 312.963C219.421 308.915 218.008 307.586 214.474 306.239L210.072 304.559V298.288C210.072 284.706 207.423 282.724 198.678 289.763C188.714 297.782 186.108 297.746 183.382 289.548C177.095 270.633 182.204 263.397 201.783 263.486C210.173 263.525 214.501 265.87 218.496 272.54C223.589 281.044 227.208 280.55 227.238 271.346C227.26 264.886 228.473 262.144 235.15 253.472C238.312 249.366 242.945 242.131 245.446 237.393C249.546 229.629 250.594 228.418 256.058 225.129C259.394 223.122 264.176 219.914 266.687 218C275.287 211.441 296.068 201.642 302.508 201.109C309.5 200.53 309.494 201.03 302.723 183.619C297.512 170.215 293.574 162.407 288.029 154.476C285.894 151.423 282.668 145.293 280.858 140.853C276.341 129.768 272.811 126.259 271.217 131.271C270.168 134.572 265.63 139.339 263.536 139.339C262.161 139.339 260.901 137.779 259.23 134.006C256.279 127.344 251.994 123.684 244.655 121.554C235.909 119.015 234.51 120.199 232.047 132.226L230.095 141.764L232.716 148.14C235.789 155.609 236.008 159.13 233.57 161.815C232.409 163.095 231.628 166.068 231.296 170.472C230.819 176.812 230.645 177.198 228.139 177.488C223.992 177.968 222.245 175.419 222.41 169.133C222.59 162.322 221.465 160.964 215.014 160.201C212.018 159.846 207.974 158.417 205.345 156.782C202.858 155.236 198.875 152.836 196.493 151.449C188.506 146.797 188.594 146.966 189.325 137.881C190.291 125.855 190.618 125.308 202.202 116.283C203.659 115.149 204.733 115.199 208.959 116.6C213.926 118.248 214.04 118.237 218.842 115.685C221.514 114.264 224.272 113.102 224.971 113.102C227.119 113.102 226.382 109.548 223.716 107.048C220.686 104.206 220.536 101.789 223.126 97.5801C227.868 89.8755 226.147 78.4594 219.198 71.5218C214.197 66.5277 211.984 66.6165 201.318 72.2332C191.638 77.3313 189.943 77.637 187.331 74.756C185.128 72.3261 183.406 72.2473 177.604 74.311C163.501 79.3283 131.04 76.5865 116.851 69.1786C112.96 67.1473 110.965 66.67 108.593 67.2018C106.873 67.5883 99.5521 68.2069 92.3256 68.5762C84.5706 68.9728 78.0748 69.8113 76.4729 70.6207C73.5166 72.1152 50.3393 66.7295 42.3669 62.6951C33.113 58.0118 18.4741 55.487 14.3807 57.8685ZM847.787 205.757C845.841 209.616 842.57 217.623 840.52 223.552C836.035 236.512 833.972 239.768 827.596 243.945C820.328 248.705 817.126 252.162 815.459 257.046C813.283 263.423 813.412 263.385 832.446 252.003C846.287 243.727 848.191 241.451 848.196 233.18C848.201 225.741 849.499 221.661 853.2 217.453C856.618 213.565 857.124 209.19 854.875 202.974C852.942 197.632 851.624 198.149 847.787 205.757ZM716.809 337.761C716.809 339.35 733.604 365.803 737.206 369.89C741.696 374.982 742.483 375.199 747.617 372.754C751.191 371.053 751.234 371.061 759.022 374.824C769.1 379.694 772.339 379.973 774.222 376.135C775.518 373.495 775.924 373.329 779.32 374.055C784.789 375.225 787.541 374.929 792.864 372.599L797.665 370.498V364.534C797.665 348.505 792.634 346.038 780.882 356.305C773.188 363.027 772.237 362.886 774.405 355.339C775.566 351.295 774.065 344.189 772.05 344.189C765.86 344.189 756.585 349.094 753.311 354.098C749.931 359.264 746.268 361.005 744.565 358.255C742.348 354.672 716.809 335.816 716.809 337.761ZM820.61 357.945C819.088 359.464 822.583 362.779 828.558 365.485C834.656 368.245 834.959 368.543 834.058 370.909C832.395 375.277 843.451 382.475 849.927 381.239C851.412 380.955 855.284 381.571 858.531 382.607C868.027 385.636 872.086 384.03 868.919 378.499C868.125 377.112 867.459 374.822 867.438 373.411C867.41 371.35 866.362 370.312 862.097 368.125C859.178 366.628 855.586 364.436 854.113 363.253C851.951 361.516 849.62 361.003 841.985 360.586C836.787 360.303 831.306 359.449 829.805 358.689C826.975 357.257 821.725 356.832 820.61 357.945ZM847.189 388.803C845.062 393.29 839.022 397.823 834.912 398.016C831.56 398.175 831.518 398.122 831.018 393.131C830.243 385.389 822.335 385.344 813.974 393.033C809.687 396.974 808.92 397.304 804.975 396.895C800.25 396.405 799.518 396.975 792.329 406.737C788.557 411.86 786.46 413.145 778.169 415.412C774.95 416.293 771.113 418.045 769.642 419.309L766.968 421.605L768.803 430.333C770.019 436.124 770.408 440.673 769.954 443.847C768.021 457.372 768.045 458.635 770.262 460.638C773.94 463.962 780.928 463.872 789.589 460.39C797.213 457.323 809.068 453.889 816.09 452.712C820.098 452.04 826.377 456.803 837.588 469.02C841.194 472.95 842.427 473.588 849.011 474.929C864.39 478.061 869.242 474.196 875.923 453.488C882.362 433.531 882.26 431.722 874.212 423.112C863.406 411.553 860.403 407.291 856.284 397.67C850.636 384.474 849.683 383.546 847.189 388.803Z" fill="#262A35"/>
</svg>
